<?xml version="1.0" encoding="UTF-8" standalone="no"?>
<!-- Created with Inkscape (http://www.inkscape.org/) -->

<svg
   xmlns:dc="http://purl.org/dc/elements/1.1/"
   xmlns:cc="http://creativecommons.org/ns#"
   xmlns:rdf="http://www.w3.org/1999/02/22-rdf-syntax-ns#"
   xmlns:svg="http://www.w3.org/2000/svg"
   xmlns="http://www.w3.org/2000/svg"
   xmlns:sodipodi="http://sodipodi.sourceforge.net/DTD/sodipodi-0.dtd"
   xmlns:inkscape="http://www.inkscape.org/namespaces/inkscape"
   width="210mm"
   height="297mm"
   viewBox="0 0 744.09448819 1052.3622047"
   id="svg2"
   version="1.1"
   inkscape:version="0.91 r13725"
   sodipodi:docname="overlapping-circles.svg">
  <defs
     id="defs4" />
  <sodipodi:namedview
     id="base"
     pagecolor="#ffffff"
     bordercolor="#666666"
     borderopacity="1.0"
     inkscape:pageopacity="0.0"
     inkscape:pageshadow="2"
     inkscape:zoom="1.979899"
     inkscape:cx="166.68898"
     inkscape:cy="687.52688"
     inkscape:document-units="px"
     inkscape:current-layer="layer1"
     showgrid="false"
     showguides="false"
     inkscape:window-width="1731"
     inkscape:window-height="844"
     inkscape:window-x="3"
     inkscape:window-y="56"
     inkscape:window-maximized="0" />
  <metadata
     id="metadata7">
    <rdf:RDF>
      <cc:Work
         rdf:about="">
        <dc:format>image/svg+xml</dc:format>
        <dc:type
           rdf:resource="http://purl.org/dc/dcmitype/StillImage" />
        <dc:title></dc:title>
      </cc:Work>
    </rdf:RDF>
  </metadata>
  <g
     inkscape:label="Layer 1"
     inkscape:groupmode="layer"
     id="layer1">
    <rect
       style="opacity:1;fill:#ffffff;fill-opacity:1;stroke:#000000;stroke-width:1;stroke-linejoin:bevel;stroke-miterlimit:4;stroke-dasharray:none;stroke-dashoffset:0;stroke-opacity:1"
       id="rect4178"
       width="300.52042"
       height="179.80716"
       x="53.033009"
       y="218.98636" />
    <path
       d="m -180.58887,309.39502 a 83.337585,83.337585 0 0 1 -83.2655,83.33755 83.337585,83.337585 0 0 1 -83.40954,-83.19338 83.337585,83.337585 0 0 1 83.12121,-83.48148 83.337585,83.337585 0 0 1 83.55333,83.04898"
       sodipodi:end="6.2797255"
       sodipodi:start="0"
       sodipodi:ry="83.337585"
       sodipodi:rx="83.337585"
       sodipodi:cy="309.39502"
       sodipodi:cx="-263.92645"
       sodipodi:type="arc"
       id="path4142"
       style="opacity:1;fill:#2526fb;fill-opacity:1;stroke:none;stroke-width:2;stroke-linejoin:bevel;stroke-miterlimit:4;stroke-dasharray:none;stroke-dashoffset:0;stroke-opacity:1"
       transform="scale(-1,1)"
       sodipodi:open="true" />
    <path
       style="opacity:1;fill:#fa0505;fill-opacity:1;stroke:none;stroke-width:2;stroke-linejoin:miter;stroke-miterlimit:4;stroke-dasharray:none;stroke-dashoffset:0;stroke-opacity:1"
       id="path4140"
       sodipodi:type="arc"
       sodipodi:cx="141.92644"
       sodipodi:cy="309.39502"
       sodipodi:rx="83.337585"
       sodipodi:ry="83.337585"
       sodipodi:start="0"
       sodipodi:end="6.2710292"
       d="m 225.26402,309.39502 a 83.337585,83.337585 0 0 1 -83.08432,83.3372 83.337585,83.337585 0 0 1 -83.589309,-82.83067 83.337585,83.337585 0 0 1 82.576259,-83.84065 83.337585,83.337585 0 0 1 84.09122,82.32108"
       sodipodi:open="true" />
    <path
       style="opacity:1;fill:#ffffff;fill-opacity:1;stroke:none;stroke-width:2;stroke-linejoin:bevel;stroke-miterlimit:4;stroke-dasharray:none;stroke-dashoffset:0;stroke-opacity:1"
       d="M 202.91797 252.73633 A 83.337585 83.337585 0 0 0 180.58984 309.10742 L 180.58984 309.39453 A 83.337585 83.337585 0 0 0 202.92578 366.02344 A 83.337585 83.337585 0 0 0 225.26367 309.39453 L 225.25781 308.38281 A 83.337585 83.337585 0 0 0 202.91797 252.73633 z "
       id="path4173" />
  </g>
</svg>
